<?xml version="1.0" encoding="UTF-8"?><svg id="Layer_1" xmlns="http://www.w3.org/2000/svg" viewBox="0 0 159.11 361.88"><defs><style>.cls-2{fill:#f4e3d4}.cls-3{fill:#e7ef78}.cls-4{fill:#f0c9b2}.cls-6{fill:#738c57}.cls-7{fill:#ba683a}.cls-8{fill:#a2562f}.cls-9{fill:#c1b274}.cls-11{fill:#b7c644}.cls-12{fill:#bed88c}.cls-13{fill:#c1907d}.cls-14{fill:#d07942}.cls-15{fill:#446125}.cls-17{fill:#52ac89}.cls-18{fill:#2b2b2b}.cls-19{fill:#34785d}.cls-20{fill:#5a753d}</style></defs><path style="fill:rgba(43,43,43,.1)" d="m16.24 350.33 73-7.7 69.87 6.86-72.16 12.39-70.71-11.55z"/><path class="cls-2" d="m78.17 313.29-2.04 22.13-12.27 5.77-2.41-11.42-3.36-20.33 1.32-2.04 17.32 2.64 1.44 3.25z"/><path class="cls-13" d="m79.38 301.98-1.21 11.31-20.08-3.85-1.45-8.06 22.74.6z"/><path class="cls-12" d="m77.33 322.91-1.2 12.51-14.68-5.65-1.2-6.86h17.08z"/><path class="cls-17" d="m43.78 345.4 17.67-15.63 14.68 5.65 1.2 9.98-3.37 2.65-25.37-.25-4.81-2.4z"/><path class="cls-19" d="M77.33 345.4v4.45H43.42l.36-4.45h33.55z"/><path class="cls-2" d="m94.77 311.24-.96 2.41 4.44 23.57 9.87 3.01 4.81-8.06.96-21.89-1.8-1.8-17.32 2.76z"/><path class="cls-13" d="m91.4 301.02 2.41 12.63 20.08-3.37.24-10.46-22.73 1.2z"/><path class="cls-12" d="m95.86 323.75 2.39 13.47 14.68.36.36-13.83H95.86z"/><path class="cls-17" d="m115.58 348.89-2.65-11.31-15.03-2.77-9.99 13.6 1.81 4.08 21.89-.6 3.97-3z"/><path class="cls-19" d="M87.91 348.41v5.89h27.9l-.23-5.41-27.67-.48z"/><path class="cls-15" d="m48.83 289.96-1.21 16.11 80.58 1.57-1.44-19.13-77.93 1.45z"/><path class="cls-6" d="m41.37 277.93-1.44 19.84h97.53l-5.65-50.63-90.44 30.79z"/><path class="cls-20" d="m41.37 277.93-.6 8.42 79.62-1.45 6.01-12.26-56.29-4.21-28.74 9.5z"/><path style="fill:#98c16d" d="m61.09 194.1-5.29-32.95 34.04-2.64 31.51 2.4-10.83 29.35-49.43 3.84z"/><path class="cls-11" d="m124.59 233.31 23.33-24.53-17.55-11.31-12.03 1.45.24 12.02 6.01 22.37z"/><path class="cls-2" d="m17.2 34.75 3 30.79 9.02 16.36 2.05 32.11 15.75 27.18 48.59-3.61 5.05-26.34 2.53-66.74L64.7 19.36 17.2 34.75z"/><path class="cls-4" d="m30.91 82.98 15.75 8.06 11.43 15.03 6.01 1.69 5.65-2.05L83.1 88.63l15.15-7.69-11.78-4.69-12.02-1.33-7.7 8.66-3.37 3.37-3.37-2.64-5.29-8.06-15.39.72-8.42 6.01z"/><path class="cls-14" d="M53.4 62.18 28.86 74.56l-.96-15.39 11.43-15.75 25.01-7.34-10.94 26.1z"/><path class="cls-7" d="M27.3 33.79 20.93 52.8l7.33 11.42 36.08-28.14-37.04-2.29z"/><path class="cls-11" d="m33.55 231.51-3.6-29.34 13.47-8.3 8.41 7.21-3.6 19.73-14.68 10.7z"/><path class="cls-14" d="m69.39 60.85-5.05-24.77 26.46 8.05 11.79 16-.37 9.74-32.83-9.02z"/><path class="cls-7" d="m109.56 32.11 3.01 12.39-9.98 15.63-38.25-24.05 45.22-3.97z"/><path class="cls-20" d="m55.8 161.15-6.37 27.55 2.4 12.38h12.63l3.01-32.11-1.56-13.71-10.11 5.89zM113.29 148.65l-4.45 23.93-5.17 26.34h14.67l.6-20.09 2.41-21.53-8.06-8.65z"/><path class="cls-15" d="m43.66.48 2.88 24.78 17.8 10.82L94.53 19 96.09.24 43.66.48z"/><path class="cls-6" d="M0 29.35 43.66.48l20.68 35.6-36.8 16.35-17.08-7.93L0 29.35z"/><path class="cls-4" d="m113.29 148.65 9.38-35.96-5.17-8.54 5.77-13.59-21.05-20.69-4.2 45.34-10.83 24.06-2.04 25.25 18.15-1.8 9.99-14.07z"/><path class="cls-15" d="M2.77 69.87 0 29.35l27.54 23.08-6.97 10.11-17.8 7.33z"/><path class="cls-6" d="M29.22 81.9 2.77 69.87l24.77-17.44 1.68 29.47zM103.19 46.78l-38.85-10.7L96.09 0l54.6 35.12-17.43 18.04-30.07-6.38z"/><path class="cls-15" d="m125.67 90.32-15.75-17.08-6.73-26.46 47.5-11.66-5.65 45.82-14.67 6.97-1.33 4.57-3.37-2.16z"/><path class="cls-8" d="m110.28 104.99-8.06-35.12.97-23.09 22.48 43.54-15.39 14.67z"/><path class="cls-6" d="m53.64 182.2 65.3-3.37 8.06 14.44-8.66 5.65.24 12.02-68.79.24 2.04-10.1 1.81-18.88z"/><path style="fill:#72c4a4" d="m26.46 252.19 10.46-29.58 22.73-9.02 38-.84 12.03 5.65 6.86 3.61 3 8.41-6.85 19.73-44.02 12.87-42.21-10.83z"/><path class="cls-19" d="m36.92 222.61 3.85-11.67 23.09-3 33.55-1.57 21.17 1.2.36 10.23-2.4 4.21-6.86-3.61-5.41-4.81-6.62 3.25-39.8 2.16-8.42-2.16-3.61 3.97-8.9 1.8z"/><path class="cls-17" d="m41.37 277.93-14.91-25.74 86.23-2.04 6.49 9.62-2.64 15.27-75.17 2.89z"/><path style="fill:#3e8e6f" d="m126.4 272.64-9.86 2.4-3.85-24.89 9.5-6.61 9.62 3.6-5.41 25.5z"/><path class="cls-17" d="m118.58 207.57 13.23 39.57-8.42 1.21-10.7 1.8 5.89-42.58z"/><path class="cls-13" d="m85.15 164.52-12.75-3.25 3.73-12.02-5.77-9.86 40.04-2.89-13.83 21.53-11.42 6.49z"/><path class="cls-3" d="m65.91 155.26 10.22-6.01 9.02 15.27-17.68 4.45-1.56-13.71zM108.84 172.58l-23.69-8.06 28.14-15.87-4.45 23.93zM55.8 161.15l-26.45 41.02 22.48-1.09.97-8.78 3-31.15z"/><path class="cls-2" d="m40.77 210.94 3.61-9.62 14.91-.24 1.8 7.1-8.65 6.37-11.67-3.61z"/><path class="cls-4" d="m45.82 220.81-5.05-9.87 12.87-1.8 7.45-.96L57.85 219l-12.03 1.81z"/><path class="cls-2" d="m97.41 206.37 4.69-7.69 16.24.24.24 8.65-14.91 3.37-6.26-4.57z"/><path class="cls-4" d="m97.65 216.84-.24-10.47 21.17 1.2-8.9 10.83-12.03-1.56z"/><path class="cls-7" d="m26.58 80.58-10.1 17.8 3.72 6.01-3 9.38 3.97 6.98-3.97 9.74 5.41 17.68h4.33l5.29-19.01-3.01-47.26-2.64-1.32z"/><path class="cls-8" d="m16.48 98.38 3.97 6.37 10.22.96-.48-7.94-13.35.6h-.36Zm.72 15.4 3.97 6.97 10.46.96-.48-7.7-13.71-.6-.36.36h.12Zm0 17.07 5.41 17.8 2.04 2.05 2.28-2.05 5.41-19.36-15.03 1.68-.12-.12Z"/><path class="cls-7" d="m137.7 101.02-3.73 9.02 5.42 6.02-3.73 9.38 4.09 6.01-5.05 5.77 3.36 6.01-7.09 15.04h-4.33l-3.37-14.79 2.4-6.02-3-4.69 2.29-5.29-4.57-5.89-1.45-8.9.72-7.7 6.01-14.67 4.7-2.41 7.33 13.11z"/><path class="cls-8" d="m137.7 101.02-3.73 9.02-11.66 3.01-3.01-7.7 18.4-4.33Zm-2.04 24.42-10.71 2.04-4.69-5.89 19-5.53-3.73 9.38h.12Zm3.96 6.01-5.05 5.65-9.14.6-2.89-5.05 17.07-1.32v.12Zm-1.68 11.66-6.97 15.04-2.05 2.04-2.29-2.04-3.37-14.67 14.68-.36Z"/><path class="cls-19" d="m132.05 163.56.96-3.61-2.04-1.68h-4.33l-1.68 2.28 1.08 3.37 2.64 1.08 3.37-1.44z"/><path class="cls-17" d="m141.67 152.86-10.7 5.41 1.08 5.29 9.98 1.08-.36-11.78z"/><path class="cls-3" d="m147.92 208.78-21.88-44.86-6.86-8.9-.6 30.43-.24 13.47 11.43 3.85 18.15 6.01z"/><path class="cls-17" d="m126.64 158.27-8.66-4.57 1.08 12.26 6.98-2.04.6-5.65z"/><path class="cls-19" d="m118.82 178.35 7.22-14.43 6.01-.36-6.49 20.2-6.74-5.41z"/><path class="cls-17" d="m132.05 163.56 14.31 24.65-5.65 5.66-11.18-22.62-3.49-7.33 6.01-.36zM22.25 151.53l-1.68-1.68 2.04-1.68h4.33l2.64 2.4-3 2.04-1.69 3.01-2.64-4.09z"/><path class="cls-19" d="m11.54 142.87 11.07 5.3-.36 3.36-10.71 3.01v-11.67zM26.94 148.17 38 143.83l.24 13.72-11.66-4.94.36-4.44z"/><path class="cls-17" d="m22.25 151.53-11.06 31.51 7.69 3.97 7.7-34.4-4.33-1.08z"/><path class="cls-19" d="m36.56 172.7-9.98-20.09-4.33-1.08 7.33 28.5 6.98-7.33z"/><path class="cls-9" d="m30.91 82.98 23.81-6.73-15.75-2.05-8.06 8.78zM74.45 74.92l15.03-3.36 8.77 9.38-23.8-6.02z"/><path style="fill:#f7f0e7" d="m60.01 84.31-1.92 21.76 11.66-.36-3-22.13-6.74.73z"/><path class="cls-13" d="m64.7 110.04-6.61-3.97 11.66-.36-5.05 4.33z"/><path class="cls-15" d="m52.68 122.07 12.38-5.66 13.35 4.7-14.07 2.28-11.66-1.32z"/><path class="cls-6" d="m65.06 126.52-12.38-4.45 25.73-.96-13.35 5.41z"/><path class="cls-13" d="m109.92 112.08 10.47 9.51 2.28-8.9-12.75-.61z"/><path class="cls-2" d="m111.25 87.67-1.33 24.41 12.75.61 3-22.37-14.42-2.65z"/><path class="cls-13" d="m113.65 101.38.24-9.38 7.46.6-7.7 8.78z"/><path class="cls-18" d="M48.23 87.31a3.73 3.73 0 1 1 0 7.46 3.73 3.73 0 0 1 0-7.46ZM81.66 84.91a3.73 3.73 0 1 1 0 7.46 3.73 3.73 0 0 1 0-7.46Z"/></svg>