<?xml version="1.0" standalone="no"?>
<!DOCTYPE svg PUBLIC "-//W3C//DTD SVG 20010904//EN"
 "http://www.w3.org/TR/2001/REC-SVG-20010904/DTD/svg10.dtd">
<svg version="1.0" xmlns="http://www.w3.org/2000/svg"
 width="300.000000pt" height="245.000000pt" viewBox="0 0 300.000000 245.000000"
 preserveAspectRatio="xMidYMid meet">
<metadata>
Created by potrace 1.10, written by Peter Selinger 2001-2011
</metadata>
<g transform="translate(0.000000,245.000000) scale(0.050000,-0.050000)"
fill="#000000" stroke="none">
<path d="M173 4845 c-4 -8 -36 -114 -71 -236 l-62 -221 0 -1884 0 -1884 1590
0 1590 0 0 -290 0 -290 885 1 885 0 406 395 406 394 58 210 59 210 0 1445 1
1445 -1604 0 -1605 0 -362 360 -361 360 -903 0 c-496 0 -907 -7 -912 -15z
m2093 -555 l362 -350 550 0 551 0 105 -104 106 -105 0 -1215 0 -1216 -500 0
-500 0 0 910 0 910 -160 0 -160 0 0 -910 0 -910 -470 0 -470 0 0 1260 0 1260
-180 0 -180 0 0 -1260 0 -1260 -470 0 -470 0 0 1670 0 1670 762 0 762 0 362
-350z m3454 -1230 l0 -900 -460 0 -460 0 0 500 0 500 -170 0 -170 0 0 -880 0
-880 170 0 170 0 0 270 0 270 460 0 460 0 0 -285 0 -285 -345 -345 -345 -345
-685 0 c-377 0 -685 7 -685 15 0 9 108 123 240 255 l241 240 -2 1300 -1 1300
96 85 96 84 695 1 695 0 0 -900z"/>
</g>
</svg>
